<svg id="Layer_1" data-name="Layer 1" xmlns="http://www.w3.org/2000/svg" viewBox="0 0 707.85 764.93"><defs><style>.cls-1{fill:#f8f8ff;}.cls-10,.cls-11,.cls-2{fill:#265803;}.cls-3,.cls-5,.cls-7,.cls-9{fill:none;}.cls-3,.cls-5,.cls-7,.cls-8,.cls-9{stroke:#265803;stroke-miterlimit:10;}.cls-3{stroke-width:3px;}.cls-4{fill:#df6911;}.cls-6,.cls-8{fill:#ffcc01;}.cls-7{stroke-width:15px;}.cls-8{stroke-width:0.5px;}.cls-9{stroke-width:7px;}.cls-10{font-size:35px;letter-spacing:-0.1em;}.cls-10,.cls-11{font-family:TimesNewRomanPS-BoldMT, Times New Roman;font-weight:700;}.cls-11{font-size:29px;letter-spacing:-0.01em;}.cls-12{opacity:0.1;}.cls-13{fill:#fff;}.cls-14{opacity:0.05;}.cls-15{fill:#444447;}</style></defs><title>re_as</title><path class="cls-1" d="M1045.21,214.17a401.34,401.34,0,0,1-150.47,14.26c-91.18-8.8-158.21-47.14-193.11-70.89,0-.36,0-.54,0-.54l-.4.27-.21-.14s0,.1,0,.29c-34.9,23.75-101.93,62.1-193.11,70.89A401.34,401.34,0,0,1,357.44,214C352,670,409.24,729.25,459.74,778c14.37,13.87,48.55,38.17,92.4,49.46,67.9,17.48,118,46.65,148.86,78.64,0,.53,0,.8,0,.8l.39-.4.27.28s0-.19,0-.55c30.89-32,81-61.16,148.86-78.64,43.85-11.29,78-35.6,92.4-49.46C993.41,729.38,1050.68,670.17,1045.21,214.17Z" transform="translate(-347 -149.39)"/><path class="cls-2" d="M1043.21,206.93A398,398,0,0,1,754.5,180a436.75,436.75,0,0,1-49.08-28.9l3.71,6.48V157c0-5.4-6.47-9.73-11.29-6.48l-.4.27H705l-.21-.14c-4.81-3.26-11.28,1.08-11.29,6.48v.29l3.71-6.48C619.17,203.95,525,230,430.73,220.7a398.47,398.47,0,0,1-71.3-13.89,7.58,7.58,0,0,0-9.49,7.23c-1.08,91.2-.39,182.65,6.57,273.64,4.16,54.32,10.16,109.12,23.59,162,7.64,30.1,18,60.21,34.56,86.65,10.78,17.19,24.34,32,38.89,46.07,28.7,27.69,65.81,43.72,103.73,54.14C599.73,848.23,642,866,676.49,893.89a214.85,214.85,0,0,1,19.2,17.49l-2.2-5.3v.8c0,6.44,8.24,10,12.8,5.3l.39-.4H696.08l.27.28c4.56,4.67,12.8,1.14,12.8-5.3v-.55l-2.2,5.3c28.37-29.2,65.21-49.44,103.12-63.49,23.88-8.85,49.09-13.61,72.59-23.44a235,235,0,0,0,53.18-30.66,229,229,0,0,0,47.71-50.67c16.59-24.13,27.37-52,35.37-80,14-49.12,20.53-100.39,25.17-151.14,7.83-85.51,9.28-171.6,8.94-257.42q-.08-20.27-.33-40.54c-.11-9.65-15.11-9.67-15,0,1.08,91,.39,182.24-6.53,273-4.08,53.64-10,107.45-23.36,159.68a381.31,381.31,0,0,1-16.09,49.51l-.4,1c-.69,1.67.66-1.54,0,.11q-.5,1.17-1,2.33-1.09,2.49-2.23,5-2.12,4.59-4.44,9.08-4.21,8.16-9.12,15.94c-2.9,4.57-6,9-9.26,13.3-1.37,1.83.61-.75-.26.34l-1.21,1.54q-1.2,1.5-2.43,3-2.28,2.75-4.66,5.41c-6,6.78-12.5,13.19-19.06,19.45-12.18,11.62-26.58,21-41.39,28.86a217.47,217.47,0,0,1-32.54,14.16c-11.9,4-24.19,6.76-36.18,10.47-41.73,12.93-82.36,32.06-115.9,60.4q-4.76,4-9.28,8.31c-3.4,3.23-8.15,6.69-8.16,11.77l12.8-5.3-.27-.28a7.6,7.6,0,0,0-10.61,0l-.39.4,12.8,5.3c0-5.28-4.63-8.66-8.16-12q-5-4.73-10.26-9.13a266.31,266.31,0,0,0-22.92-17.12c-18.24-12.17-37.88-22-58.14-30.33-11.65-4.78-23.53-9-35.57-12.66s-24.26-6.39-36.11-10.51a223.21,223.21,0,0,1-56.61-29.53c-11-7.91-20.79-17.45-30.09-27.3-3.29-3.49-6.49-7.06-9.55-10.76q-1.12-1.35-2.21-2.72l-1.1-1.39c-1.45-1.82.69.94-.37-.48-1.64-2.18-3.26-4.38-4.82-6.62a210.18,210.18,0,0,1-18.2-32.16q-1-2.25-2-4.52-.51-1.16-1-2.33c-.71-1.65.65,1.56,0-.11l-.6-1.45q-2.22-5.4-4.22-10.89c-3-8.16-5.64-16.43-8-24.78-13.89-48.21-20.35-98.31-24.91-148.09-7.83-85.51-9.28-171.6-8.94-257.42q.08-20.27.33-40.54l-9.49,7.23c100.79,29.1,209.22,18,302.54-29.64q14.48-7.39,28.38-15.87,5.94-3.62,11.76-7.43c4.21-2.75,10.38-5.46,10.39-11.22l-11.29,6.48.21.14a7.33,7.33,0,0,0,7.57,0l.4-.27L694.13,157c0,5.53,4.82,7.8,8.85,10.46q5.27,3.48,10.64,6.81,12,7.42,24.42,14.05a433.87,433.87,0,0,0,62.56,27.26A405.64,405.64,0,0,0,970.3,236a419.94,419.94,0,0,0,76.91-14.59C1056.46,218.73,1052.52,204.25,1043.21,206.93Z" transform="translate(-347 -149.39)"/><path class="cls-3" d="M919.47,733.76c-4-2.58-14.59-7.36-29-6.75a105.35,105.35,0,0,0-17.5,3.42c-8,2.22-16.6,5.56-18.5,6.33-4.82,2-8.23,4.09-17.5,10.75-11.37,8.17-17,12.3-20.5,15.25-25.13,21.31-34.28,51-40,49-1.33-.47-.64-2-3.25-5.24-3.29-4.08-9.66-8.23-15-6.75-4.3,1.19-4.52,5.09-8,5s-4.36-4-8.75-4.25c-3-.2-4.29,1.42-5.5.5-1.64-1.25.66-4.39-.5-8.5-1.38-4.88-6.21-6.12-5.75-8.25s5.76-2.69,9-3c2.7-.26,4-.12,15.5.5a29.08,29.08,0,0,0,9-.5,25.43,25.43,0,0,0,5-1.75c25.57-11.86,33.2-17,44.58-25.42,5.34-3.94,13-11.23,24.67-19.58,1-.75,1.92-1.35,2.5-1.75" transform="translate(-347 -149.39)"/><path class="cls-3" d="M847.83,740.1a43,43,0,0,1,9.46.66c5.13,1.33,8.14,4.1,9.94,5.13,8.75,5,18.05,1.7,22.06.56,1.68-.48,6.55-2.76,13.48-7.15,1.09-.69,1.63-1.06,2.71-1.73,5.21-3.21,11.17-2.43,13.19-2.06a20.45,20.45,0,0,1,2.5.63,6.82,6.82,0,0,0-2.5-2.87" transform="translate(-347 -149.39)"/><path class="cls-2" d="M841.52,731.59c-4.28-6.25-4.91-11.58-1.75-18.42a59.23,59.23,0,0,0,5.71-21.4l-2.95.4A44.67,44.67,0,0,0,846.38,703c2.17,4.14,4.17,7.48,4.09,12.43-.13,7.49-4.1,14.38-9.47,19.41h2.12c-.71-.76-1.1-2.35-1.6-3.28-.92-1.7-3.51-.19-2.59,1.51.7,1.3,1,2.79,2.07,3.89a1.52,1.52,0,0,0,2.12,0c5.23-4.9,9.15-11.43,10.1-18.59,1.36-10.27-5.62-17.47-7.8-27-.39-1.72-2.84-1.22-2.95.4a50.72,50.72,0,0,1-3.17,15.05c-1.27,3.31-3.25,6.44-4.19,9.88-1.63,5.95.46,11.51,3.82,16.41C840,734.68,842.61,733.18,841.52,731.59Z" transform="translate(-347 -149.39)"/><path class="cls-2" d="M842.45,719.09a10.55,10.55,0,0,1,1.54,3.55,15.08,15.08,0,0,1,.42,3.73,14.87,14.87,0,0,1-.51,3.72,10.45,10.45,0,0,1-1.63,3.51,17.73,17.73,0,0,1-.72-3.71,32.22,32.22,0,0,1-.14-3.55,33,33,0,0,1,.23-3.54A18,18,0,0,1,842.45,719.09Z" transform="translate(-347 -149.39)"/><path class="cls-2" d="M860.8,726.59A48.83,48.83,0,0,0,858,713.5c-.8-2.13-1.64-3.68-1.34-6,1-8.23,8.18-16.33,13.06-22.51l-2.56-1.06a27.23,27.23,0,0,0,1.83,9.81c1.44,3.51,3.8,6.15,3.86,10.16.13,8.83-6.91,17.39-14.28,21.4-1.7.92-.18,3.52,1.51,2.59a31,31,0,0,0,15.14-19.17c2.35-9.28-4.88-15.72-5.06-24.79,0-1.18-1.71-2.14-2.56-1.06-5.3,6.72-11.92,14.5-13.72,23.15a11.18,11.18,0,0,0,.06,5.39c1.46,5.19,3.43,9.69,3.88,15.19C858,728.5,861,728.52,860.8,726.59Z" transform="translate(-347 -149.39)"/><path class="cls-4" d="M910,637c-5.76-5.82-13.08-9.3-21.09-6-5,2-9.23,2.11-13.46-1.68-2.26-2-4.16-4.54-7.07-5.69-4.57-1.81-8.28,1.09-12.2,3.23-4.23,2.31-8.41,5.2-12.87,7-5.54,2.29-11.16-.47-15.62-3.76-1.56-1.15-3.05,1.46-1.51,2.59,5.8,4.28,12.73,6.7,19.51,3.34,4.27-2.12,8.36-4.64,12.55-6.92,1.79-1,4.44-3,6.55-3.24,3.57-.37,6.23,3.43,8.54,5.53a14.8,14.8,0,0,0,7.46,4c3.9.66,6.64-.81,10.17-2,6.52-2.28,12.42,1.25,16.91,5.79A1.5,1.5,0,0,0,910,637Z" transform="translate(-347 -149.39)"/><path class="cls-4" d="M916.7,630.37c-4.67-5.42-10-8.92-16.64-4.6-2.6,1.7-4.92,1.6-7.33-.52-1.34-1.17-2.06-2.22-3.84-2.86-2.51-.9-4.7-.13-6.95,1.05-4.67,2.45-8.61,4.56-14.11,4.47-6.15-.1-12.29-2-18.15-3.75-8.47-2.48-15.11-1.3-21.76,4.88-1.42,1.32.71,3.43,2.12,2.12,3.79-3.52,8.59-6.31,14-5.43,4.33.71,8.58,2.44,12.84,3.49,7.65,1.88,15.39,2.69,22.66-.94,3.37-1.68,6.35-4.77,10-2,2.16,1.64,3.12,4,6.13,4.31,2.85.27,4.63-1.57,6.91-2.91,4.93-2.89,8.94,1.21,12,4.8,1.26,1.46,3.38-.67,2.12-2.12Z" transform="translate(-347 -149.39)"/><path class="cls-5" d="M942.81,721.93" transform="translate(-347 -149.39)"/><path class="cls-2" d="M878.14,718.09c8.58.49,17.18.74,25.77.66,3.34,0,6.73,0,9.92-1.07a37.13,37.13,0,0,0,10-5.95A168.63,168.63,0,0,0,943,694a1.52,1.52,0,0,0-1.06-2.56c-23.5,1.49-48.55,5.47-64.89,24.11-1.27,1.45.85,3.58,2.12,2.12,15.82-18,40-21.78,62.77-23.23l-1.06-2.56a172.34,172.34,0,0,1-18.08,16.87c-3.06,2.39-6.45,5-10.18,6.19-3.34,1.11-7.05.83-10.51.84-8,0-16-.21-24-.67C876.21,715,876.22,718,878.14,718.09Z" transform="translate(-347 -149.39)"/><path class="cls-5" d="M966.47,704.59" transform="translate(-347 -149.39)"/><path class="cls-2" d="M883.71,708.54c4.86-1.8,5.18-9.81,5.13-14.16-.11-8.87-4-16.75-6.64-25a1.52,1.52,0,0,0-2.74-.36c-3.93,6.4-7.34,14.8-6.65,22.42.47,5.16,3.69,17.06,10.5,17.17,1.93,0,1.93-3,0-3-3.23-.05-5.62-6.85-6.35-9.1a21.77,21.77,0,0,1-.73-11.44A45.88,45.88,0,0,1,882,670.52l-2.74-.36c1.84,5.73,4.37,11.2,5.66,17.11a33.41,33.41,0,0,1,.73,10.33c-.17,1.81-.62,7.24-2.79,8C881.11,706.31,881.89,709.21,883.71,708.54Z" transform="translate(-347 -149.39)"/><path class="cls-2" d="M898.92,689.66c3-9.8,9.88-21.26,19.53-25.87,5.23-2.5,10.11-.63,15.42-1.83a25.94,25.94,0,0,0,12.66-7.64L944,653.26c-.21,12.6-9,22.29-20.38,26.86-4.83,1.95-10,1.49-14.77,3.19a19.45,19.45,0,0,0-5.45,3.15c-.76.6-1.46,1.27-2.19,1.91-1.05.93-1.9,2.87-2.26.49-.29-1.9-3.18-1.09-2.89.8.69,4.59,3.7,4,6.54,1.52,4.07-3.58,7.17-5.31,12.66-5.92a35.3,35.3,0,0,0,8.76-2.07c12.83-4.89,22.75-15.83,23-29.93a1.52,1.52,0,0,0-2.56-1.06c-5.18,5.31-10.57,7.16-17.82,6.93a21.78,21.78,0,0,0-14.31,5.06c-7.78,6.13-13.35,15.32-16.25,24.67C895.45,690.71,898.35,691.5,898.92,689.66Z" transform="translate(-347 -149.39)"/><path class="cls-2" d="M890,690.26c5.62-.52,7.84-11.1,8.68-15.32a39.14,39.14,0,0,0-2.89-23.43c-.74-1.7-3-.36-2.74,1.16.94,6.48-3.62,8.37-6.43,13a19.57,19.57,0,0,0-2.38,10c0,4,.5,13.08,5.36,14.58,1.85.57,2.64-2.32.8-2.89-2.06-.64-2.68-6.1-2.91-7.86-.51-3.85-.46-8.34,1.47-11.83,1.44-2.59,4.15-4.16,5.62-6.77a13.75,13.75,0,0,0,1.37-9L893.18,653a36.41,36.41,0,0,1,3.1,17.38,38.58,38.58,0,0,1-2.13,9.6c-.44,1.24-2.2,7.08-4.18,7.26S888,690.44,890,690.26Z" transform="translate(-347 -149.39)"/><path class="cls-2" d="M906.21,668.87c6.15-1.37,6.74-14,6.34-18.71-.64-7.43-4.32-14.12-9.18-19.63a1.51,1.51,0,0,0-2.51,1.46,22,22,0,0,1,.23,13.35c-1.18,3.68-2.19,6.85-1.92,10.79s1.55,11.69,6.24,12.75c1.88.42,2.68-2.47.8-2.89-2.52-.56-3.5-5.95-3.82-7.95-.67-4.12.17-7.47,1.4-11.33a25.21,25.21,0,0,0,0-15.51l-2.51,1.46A33.75,33.75,0,0,1,908.78,646a26,26,0,0,1,.4,11.52c-.38,2.1-1.28,7.88-3.78,8.44C903.52,666.4,904.32,669.29,906.21,668.87Z" transform="translate(-347 -149.39)"/><path class="cls-5" d="M979.64,627.59" transform="translate(-347 -149.39)"/><path class="cls-2" d="M912.84,658.55c2.8,1.9,6.88-.32,9.45-1.66a70.35,70.35,0,0,0,14.44-10.35c8.69-7.86,14.78-17.87,18.94-28.76a1.51,1.51,0,0,0-2.51-1.46c-2.44,2.94-5.43,5.5-9.19,6.54-2.94.82-6.08.5-9.07,1.13A29,29,0,0,0,923,629.68a25.27,25.27,0,0,0-8.42,13,83.13,83.13,0,0,0-2.67,10.9c-.25,1.56-.54,3.05.37,4.46,1,1.62,3.64.12,2.59-1.51-1.33-2.06,1.28-8.07,1.85-10.26a38.65,38.65,0,0,1,2.36-7.1c2.63-5.47,7.82-9.36,13.46-11.35,3.75-1.33,7.66-1,11.48-1.87a21.1,21.1,0,0,0,11.24-7.48L952.78,617a71,71,0,0,1-15.85,25.24,73.83,73.83,0,0,1-10.87,8.88c-2.12,1.43-9,6.71-11.7,4.86C912.75,654.88,911.25,657.48,912.84,658.55Z" transform="translate(-347 -149.39)"/><path class="cls-2" d="M919,635.51c.18-5.41.58-10.25-1-15.5a50.09,50.09,0,0,0-6.23-13.25,1.51,1.51,0,0,0-2.74,1.16c1.75,9-4.27,19.52.7,27.76,1.16,1.92,3.79,5.31,6.4,5.19,2.9-.13,2.75-3.13,2.84-5.34.08-1.93-2.92-1.93-3,0-.22,5.41-4.91-3.87-5.11-5.8-.33-3.14.36-6.53.92-9.59a34.05,34.05,0,0,0,.13-13l-2.74,1.16a47.39,47.39,0,0,1,5.93,12.54c1.46,5,1,9.6.86,14.7C915.91,637.44,918.91,637.44,919,635.51Z" transform="translate(-347 -149.39)"/><path class="cls-2" d="M925.62,619.21a55.11,55.11,0,0,0,37.73-51.07c0-1.78-2.38-1.91-2.95-.4-2.29,6.13-7.56,6.39-12.34,9.47a48.5,48.5,0,0,0-11.4,11.06,63.77,63.77,0,0,0-12.89,29.1c-.32,1.89,2.57,2.7,2.89.8A61.83,61.83,0,0,1,943,585.52a33.52,33.52,0,0,1,12.42-8.25c4-1.68,6.42-4.74,7.91-8.74l-2.95-.4a52,52,0,0,1-35.52,48.18C923,616.92,923.78,619.82,925.62,619.21Z" transform="translate(-347 -149.39)"/><path class="cls-2" d="M924.17,608.57c-3.51-1-5-5.43-5.9-8.64a26.82,26.82,0,0,1,.54-15.15h-2.89a32.49,32.49,0,0,0,4.38,9.93c.82,1.18,1.78,2.25,2.66,3.39a20.61,20.61,0,0,1,2.5,4.08c.68,1.47,3.23,6.65-1.7,6.35-1.93-.12-1.92,2.88,0,3,6.19.38,6.8-4.9,4.86-9.6a28.4,28.4,0,0,0-4.32-6.88,30.36,30.36,0,0,1-5.5-11,1.51,1.51,0,0,0-2.89,0c-2.4,7.77-2.73,24.46,7.45,27.48C925.23,612,926,609.12,924.17,608.57Z" transform="translate(-347 -149.39)"/><path class="cls-2" d="M928.23,590.68c4.64-2,3.89-11.56,3.41-15.42a31.22,31.22,0,0,0-8.85-17.69,1.52,1.52,0,0,0-2.56,1.06c0,6.6-2.6,13.64-1.48,20.18.7,4.12,3.59,11.93,8.73,12.07,1.93.05,1.93-2.95,0-3-2.66-.08-4.78-5.83-5.31-7.67a16.26,16.26,0,0,1-.32-7.62,88,88,0,0,0,1.39-14l-2.56,1.06a29.31,29.31,0,0,1,7.14,11.73c.91,3,3,14.88-1.08,16.67C925,588.86,926.48,591.45,928.23,590.68Z" transform="translate(-347 -149.39)"/><path class="cls-2" d="M935.55,581.58c6.49-1.89,11-8.32,12.34-14.78.83-4,.27-8.2.63-12.28a53.77,53.77,0,0,1,4.15-16.12c.63-1.49-1.51-2.37-2.51-1.46a67.2,67.2,0,0,0-18.57,28.82c-1.64,4.91-5.5,17.67,4,15.81,1.89-.37,1.09-3.26-.8-2.89-5.95,1.17,2-18.1,3-20.17a62.15,62.15,0,0,1,14.58-19.45l-2.51-1.46a60.23,60.23,0,0,0-4.43,23.45c0,7-3.1,15.44-10.59,17.63C932.9,579.23,933.69,582.13,935.55,581.58Z" transform="translate(-347 -149.39)"/><path class="cls-4" d="M856,678.59a1.5,1.5,0,0,0,0-3,1.5,1.5,0,0,0,0,3Z" transform="translate(-347 -149.39)"/><path class="cls-4" d="M491.06,612.39c4.32-3.31,7.62-4.77,12.05-1.17,2.22,1.81,4.48,3.36,7.45,3.6,1.7.14,3.33-.45,5,.05,2.29.68,3.48,2.63,5,4.22s3,2.78,5.23,2.45c6.59-1,13.69-14.62,20.92-8.83,2.34,1.88,3.9,4,6.79,5.2a19.52,19.52,0,0,0,11.5.63c1.89-.39,1.09-3.28-.8-2.89a15,15,0,0,1-14.67-4.33c-1.73-1.7-3.38-3.08-5.93-3.06-3.44,0-6.72,2.22-9.44,4.07-3.31,2.25-7.76,8-11.48,4.63-2.34-2.1-3.68-4.38-7-5.13a16.2,16.2,0,0,0-3.85,0c-2.94,0-4.86-1.31-7-3.09-5.26-4.34-10.1-3-15.32,1-1.51,1.16,0,3.76,1.51,2.59Z" transform="translate(-347 -149.39)"/><path class="cls-4" d="M612.31,683.93a1.5,1.5,0,0,0,0-3,1.5,1.5,0,0,0,0,3Z" transform="translate(-347 -149.39)"/><path class="cls-4" d="M613.06,671.39l13.81-7c1.72-.87.21-3.46-1.51-2.59l-13.81,7c-1.72.87-.21,3.46,1.51,2.59Z" transform="translate(-347 -149.39)"/><path class="cls-4" d="M498.06,623.05c3.46-1.87,7.8-3.88,11.63-1.8,2.65,1.44,3.94,4.3,6.09,6.27,4.35,4,7.12.57,11.52-1.16,6.42-2.52,15.72-1.71,20.85,3.27,3.74,3.63,5.86,7.56,11.21,3.18,1.49-1.22-.64-3.34-2.12-2.12-2.93,2.4-7.8-4.2-10.06-5.55a22.21,22.21,0,0,0-7.5-2.65c-5.15-.91-10.91-.52-15.55,2-1.37.76-2.68,2.3-4.43,2s-2.92-2.35-3.93-3.55c-1.63-2-3.29-3.84-5.72-4.82-4.6-1.86-9.42.12-13.51,2.33-1.7.92-.19,3.51,1.51,2.59Z" transform="translate(-347 -149.39)"/><path class="cls-4" d="M514.58,631.15c4,3.52,8.49,5.37,13.68,3.92,7.55-2.11,19.55-7,23.27,3.08.66,1.8,3.56,1,2.89-.8-2.31-6.28-7.26-8.89-13.81-8.26a55.56,55.56,0,0,0-11.1,2.41c-5,1.56-8.68,1.2-12.82-2.48-1.44-1.28-3.57.83-2.12,2.12Z" transform="translate(-347 -149.39)"/><path class="cls-4" d="M521.37,644.87c6.48-1.34,11.38.33,15.76,5.15a14.33,14.33,0,0,0,6.26,4.49c6.48,2,13.58-1,19.33-3.79,1.74-.84.22-3.42-1.51-2.59-7.07,3.4-15.42,6.62-21.58.2-5.53-5.77-10.92-8-19.06-6.35-1.89.39-1.09,3.28.8,2.89Z" transform="translate(-347 -149.39)"/><path class="cls-4" d="M520.06,653.05c5.7-4.17,11.45-3.54,17.65-.64,4,1.86,7.9,6.48,12.39,6.82,3.56.27,5.35-2.54,8.42-3.53,4.73-1.52,10.66,1.66,14.69,3.68,1.72.86,3.24-1.72,1.51-2.59-4.32-2.17-9.18-4.53-14.15-4.41-4.68.11-8.25,5.12-12.85,2.79-2.48-1.25-4.58-3.35-7.09-4.66a33.25,33.25,0,0,0-8.35-3.15,16.14,16.14,0,0,0-13.74,3.09c-1.54,1.13,0,3.73,1.51,2.59Z" transform="translate(-347 -149.39)"/><path class="cls-4" d="M531,671.15c3.28-2.61,6.76-3.67,10.61-1.65,1.87,1,3.43,2.43,5.36,3.33,4.5,2.09,9.15,1.62,13.71,0,1.81-.63,1-3.53-.8-2.89-4.3,1.49-8.62,1.87-12.74-.43-2.12-1.18-3.91-2.91-6.24-3.71-4.48-1.54-8.53.42-12,3.19-1.51,1.2.62,3.31,2.12,2.12Z" transform="translate(-347 -149.39)"/><path class="cls-4" d="M541.06,682.39c2.78-1.43,6-2.79,9.18-1.85,2.67.79,4.3,3.12,6.41,4.74,4.17,3.22,9,3.67,14.06,2.59,1.89-.4,1.09-3.3-.8-2.89a13.55,13.55,0,0,1-12.81-3.27,19,19,0,0,0-4.84-3.61c-4.3-1.87-8.77-.32-12.71,1.7-1.72.88-.2,3.47,1.51,2.59Z" transform="translate(-347 -149.39)"/><path class="cls-4" d="M557.4,689.72c1.66-.89,3.7-2.15,5.66-1.65,1.7.43,2,2.24,3.17,3.29,1.36,1.24,2.29,1.93,4.16,2,1.38,0,2.63-.86,3.48-.64,2.5.65,5.18,3.27,7,4.78,1.49,1.21,3.62-.9,2.12-2.12-2.3-1.87-4.8-4.18-7.61-5.24-1.61-.61-2.35-.07-4-.17-3.56-.19-4.17-3.91-7.44-4.81-2.78-.77-5.69.72-8.06,2-1.7.91-.19,3.5,1.51,2.59Z" transform="translate(-347 -149.39)"/><path class="cls-4" d="M575,675.15c2.49-2.48,6-5.81,9.93-4.74,2.45.67,4,3,5.77,4.7,2.7,2.53,6.11,4.36,9.91,3.8,7-1,12.84-1.63,19.92-.37,3.81.67,7.61,2.43,11.46,2.7,4.75.33,7.6-2.16,11.81-3.51,6.12-2,10,3,15.56,3.6,5.22.58,8.92-4.48,13.89-2.9s8.72,3.71,14.34,3.17c1.9-.18,1.92-3.19,0-3a20.15,20.15,0,0,1-10.43-1.68,18.17,18.17,0,0,0-5.47-1.92,9,9,0,0,0-5.85,1.52c-3.2,1.82-5.89,2.39-9.31.83-4.47-2-8.49-4.08-13.53-2.51-4.79,1.49-7.82,4.29-13.23,2.94s-11-2.86-16.73-3.19a37.88,37.88,0,0,0-10.2.65c-2.55.55-4.16,1.17-6.76,0-4.37-1.92-6.39-7.2-11.43-7.94-4.72-.7-8.68,2.62-11.79,5.72a1.5,1.5,0,0,0,2.12,2.12Z" transform="translate(-347 -149.39)"/><path class="cls-4" d="M612.37,687.49c8.56-7.56,18.95-6.8,29.16-3.08,3,1.09,5.64,2.58,9,2,2.06-.34,3.62-1.48,5.45-2.37,3.69-1.8,6.3-1,9.62,1.31,1.58,1.11,3.08-1.49,1.51-2.59-3.9-2.74-7.7-3.73-12.12-1.6-4.2,2-5.67,2.88-10.71,1.05-1.59-.57-3.14-1.19-4.76-1.68-10.7-3.24-20.64-2.79-29.23,4.8-1.45,1.28.68,3.4,2.12,2.12Z" transform="translate(-347 -149.39)"/><path class="cls-4" d="M562.77,705c5.25-2.49,10.31-2.53,14.82,1.22a25.51,25.51,0,0,0,6.67,4.54c4.87,2,10.08,1.4,15,.11a1.5,1.5,0,0,0-.8-2.89c-4,1-8.24,1.71-12.25.34-3.11-1.06-5.24-3.31-7.8-5.26-5.32-4-11.39-3.41-17.2-.65-1.74.83-.22,3.41,1.51,2.59Z" transform="translate(-347 -149.39)"/><path class="cls-4" d="M561.06,711.39c4.08-1.87,8.83-3.71,13.4-2.69,3.79.85,5.22,3.83,8,6.06,4.19,3.36,8.28,2.42,13,1.27s8.58.43,13,2.29a10.73,10.73,0,0,0,5.6,1.12c3.14-.39,5-2.93,8-3.63,4.1-1,8.47.88,12.1,2.58,1.74.81,3.26-1.77,1.51-2.59-5-2.34-11.13-4.64-16.53-2.14-2.57,1.19-4.17,3.33-7.39,2.71-1.89-.36-3.62-1.57-5.4-2.28a18.41,18.41,0,0,0-9.57-1.39c-3.61.51-6.72,2.42-10.38.9-3.46-1.44-5-5.12-8.41-6.8-6-3-12.9-.58-18.51,2-1.75.8-.23,3.39,1.51,2.59Z" transform="translate(-347 -149.39)"/><path class="cls-4" d="M599.4,659.39c1.62-1.23,4.81-1.06,6.47-.14.5.28.81,1,1.3,1.32a4.52,4.52,0,0,0,3.37,1c4.27-.6,3.61-5.24,9-2.62,2.49,1.21,4,2.57,7,1.75,1.81-.49,3.28-1.84,5.06-2.43,3.29-1.09,6.53-.22,9.59,1.14,1.75.78,3.28-1.81,1.51-2.59-4.31-1.92-8.62-2.86-13.1-1-2.83,1.2-4.39,3-7.68,1.13-1.37-.79-2.14-1.91-3.76-2.25a5.83,5.83,0,0,0-4,.68c-2.59,1.4-3.43,3.17-6.56,1.35-1.39-.81-1.89-1.89-3.69-2.15-2.3-.33-4.34.87-6.09,2.2-1.51,1.16,0,3.76,1.51,2.59Z" transform="translate(-347 -149.39)"/><path class="cls-4" d="M609.4,665.05c4.38-2,8.81-2.8,13.48-1.27,2.63.86,4.92,2,7.76,2,3.2-.09,5.82-2.54,8.84-2.63,3.25-.09,5.08,2.83,8.54,1.94,1.21-.31,2.15-1.29,3.52-.61,1,.5,1.77,2.68,2.28,3.62.92,1.66,1.78,3.87,3.5,4.9a3.62,3.62,0,0,0,3.64.14c2.89-1.16,5.58-3.92,8.44-5.38,1.72-.88.2-3.47-1.51-2.59-1.48.75-2.93,1.55-4.33,2.45-.63.4-3.39,3-4.11,2.93-2.12-.29-3.4-5-4.47-6.53-1-1.39-2.15-2.79-3.93-3a7.66,7.66,0,0,0-2,.3,14.8,14.8,0,0,1-6.44-.44c-2.11-.62-3.66-.93-5.79-.16-4.16,1.5-6.74,2.59-11.08,1-6.32-2.33-11.68-2-17.83.79-1.76.8-.23,3.38,1.51,2.59Z" transform="translate(-347 -149.39)"/><path class="cls-4" d="M609.91,665.82c3.74,3,8.15,6,13.21,5.51,2.34-.24,4-1.35,6-2.43a21.71,21.71,0,0,1,14.08-2.69c1.89.27,2.7-2.62.8-2.89a24,24,0,0,0-15.29,2.36c-2.32,1.25-4.24,2.77-7,2.72-3.67-.06-7-2.5-9.71-4.69-1.49-1.21-3.62.9-2.12,2.12Z" transform="translate(-347 -149.39)"/><path class="cls-4" d="M610,693.59a18,18,0,0,1,9.49,2.91c1.4.91,2.39,1.87,4.11,2,3.89.37,4.79-3.25,7.89-4.19,2.37-.72,6.42,3.68,9.38,3.94,4.15.36,8.25-1.5,11.88-3.24,1.74-.83.22-3.42-1.51-2.59-3.91,1.87-9.58,4.59-13.54,1.43-2.14-1.71-3.45-3.75-6.57-2.7-3.71,1.25-4.78,5.61-9.26,3.36-4.1-2.06-7.1-3.8-11.87-4-1.93-.06-1.93,2.94,0,3Z" transform="translate(-347 -149.39)"/><path class="cls-4" d="M612.4,698.39c2.49-1.24,6.83-1.94,9.14,0,2.62,2.24-.78,3.4-2.12,4.89-1.14,1.26-2,2.63-.35,3.91s6.08-.06,7.87-.39c4.62-.86,7.53-2.15,11.94.23,1.7.92,3.22-1.67,1.51-2.59s-3.53-2.32-5.49-2.48-5.37,1.29-7.51,1.71c-1.9.38-3.82.73-5.75.94q-.47,1.5.58.22l.76-.63a8.07,8.07,0,0,0,2-2.07c1.75-2.83.3-5.2-2.47-6.59a12.85,12.85,0,0,0-11.59.23c-1.73.86-.21,3.45,1.51,2.59Z" transform="translate(-347 -149.39)"/><path class="cls-4" d="M639.71,718.21c5.76-2.06,9.78-.37,14.17,3.26,2,1.65,4.07,3.08,6.76,3.12s4.66-1.52,6.88-3c4.85-3.16,10.45-4,16.12-3.37,1.92.22,1.9-2.79,0-3A27.43,27.43,0,0,0,670,716.92c-3.45,1.44-7,5.65-10.95,4.37-3.25-1-5.41-4.51-8.54-5.94-3.73-1.71-7.78-1.39-11.55,0-1.8.65-1,3.54.8,2.89Z" transform="translate(-347 -149.39)"/><path class="cls-4" d="M654.4,716.39a11.57,11.57,0,0,1,12.15,1.33c1.53,1.17,3-1.43,1.51-2.59a14.48,14.48,0,0,0-15.18-1.33c-1.73.85-.21,3.44,1.51,2.59Z" transform="translate(-347 -149.39)"/><path class="cls-4" d="M736.4,715.39c6.07-2.76,10.54-1.21,14.15,4,1.32,1.89,2.53,4.1,4.59,5.31,4,2.34,6.8-.55,10-2.73,4.21-2.83,11.3-8,15.46-8.37,5.6-.5,13.28.7,17.93,3.49a1.5,1.5,0,0,0,1.51-2.59c-5.17-3.1-12.66-4.17-18.81-3.91-4.3.18-8.2,2.88-11.74,5.07-3.14,1.93-6.51,5.24-9.94,6.55s-5.32-2.82-7-5.22c-4.51-6.3-10.66-7.33-17.65-4.15-1.76.8-.23,3.38,1.51,2.59Z" transform="translate(-347 -149.39)"/><path class="cls-4" d="M744.31,722.59a16.58,16.58,0,0,1,11.26,2.49c1.71,1.07,3.29,2.2,5.4,2.18,5.18-.06,7-6.56,12.46-6.41,4.91.13,9.07,2.55,14.21,2.08,7.39-.68,12.44-4.47,18.61,2.23,1.31,1.42,3.43-.7,2.12-2.12-3.54-3.85-8.08-6-13.29-4.81-4,.88-7.72,2.15-11.9,1.73-2.65-.26-5.06-1.33-7.64-1.84-5.4-1.05-8,1.86-12,4.87-3.71,2.81-6.5-1-9.89-2.36a18.63,18.63,0,0,0-9.32-1c-1.89.23-1.92,3.23,0,3Z" transform="translate(-347 -149.39)"/><path class="cls-4" d="M752.31,702.26A28,28,0,0,1,765,703.41c2.3.79,4.22,1.84,6.73,1.46,2.8-.41,4.27-2.09,6.25-3.88,4.2-3.79,6.22-.5,9.87,1.51,6.8,3.74,10.2-4.65,16.51-3,3.35.88,6.05,2.9,9.59,3.45a31.2,31.2,0,0,0,10.44-.43c1.9-.34,1.09-3.24-.8-2.89-5.17.94-10,.78-14.85-1.38-2.65-1.19-4.77-2.39-7.81-1.85-2.31.41-3.64,1.71-5.56,2.88-4.7,2.86-6.49-.48-10.2-2.45-4.83-2.56-7.37.75-10.78,3.52-3.94,3.2-7.53.18-11.67-.72a31.08,31.08,0,0,0-10.4-.39c-1.89.23-1.92,3.23,0,3Z" transform="translate(-347 -149.39)"/><path class="cls-4" d="M774.42,711.83a9.68,9.68,0,0,1,12.24-5.89c3.92,1.29,4.53,4.53,7.48,6.6,4.47,3.15,11.33.85,15.9-.66,1.82-.6,1-3.5-.8-2.89-3.54,1.17-9.86,3.68-13.37,1.12-1.22-.89-1.78-2.61-2.84-3.73a13.74,13.74,0,0,0-5.18-3.25c-6.92-2.53-13.79,1.24-16.33,7.91-.69,1.81,2.21,2.59,2.89.8Z" transform="translate(-347 -149.39)"/><path class="cls-4" d="M766.88,690.39c6.09,4.07,13.56,5.62,19.74.91,3.4-2.59,6.25-5.81,10.92-5.67,3.85.12,6.91,2.73,10.11,4.55,5.72,3.25,12.23,3.84,18.06.45,3.43-2,6.16-4.73,10.07-5.87,5.94-1.72,12.18.13,17.43,3,1.7.92,3.22-1.67,1.51-2.59-6.87-3.71-15.13-5.6-22.54-2.23-3.37,1.53-6,4.28-9.32,5.82-4.61,2.13-9.42,1.3-13.71-1.13-5.5-3.12-10.28-6.54-16.81-4-3.25,1.27-5.31,3.87-8.12,5.77-5.14,3.47-11.07,1.62-15.83-1.56-1.61-1.08-3.11,1.52-1.51,2.59Z" transform="translate(-347 -149.39)"/><path class="cls-4" d="M771.06,686.72c4.58-2.72,10.13-4.32,15.21-2,3,1.37,5.5,3.35,8.75,4.17,6.59,1.67,13.87,0,19.77-3.17a29.41,29.41,0,0,0,3.59-2.29c1-.76,3.06-3.25,4.27-3.37,2.91-.28,3.62,6.2,4.65,8.16,3.35,6.32,10.25,6.32,16.4,4.65a1.5,1.5,0,0,0-.8-2.89c-5.81,1.57-11.42,1.25-13.77-5.1-.83-2.25-1.14-5.29-3.09-6.95-4.17-3.55-9.25,3.27-12.52,5.06-7.89,4.31-16.17,4.51-24,.08-6.61-3.76-13.63-2.73-20,1.06a1.5,1.5,0,0,0,1.51,2.59Z" transform="translate(-347 -149.39)"/><path class="cls-4" d="M784.58,670.49c4,3.92,9.72,8.5,15.58,5.64,4.09-2,6.18-7,11.48-4.75,2.81,1.21,4.8,2.51,8,1.54,1.41-.43,2.39-1.5,3.7-2,2.29-.95,1.8.51,2.57,2.64a5.51,5.51,0,0,0,4.42,3.82c3.21.63,6.83-.77,9.48-2.49,1.57-1,2.58-2.55,4-3.7.44-.36.54-1.21,1-1.49,3.34-2,5.37,1.2,6.89,3.19,1.16,1.51,3.76,0,2.59-1.51-3.36-4.38-7.92-8.88-12.07-3.19a14.09,14.09,0,0,1-6.71,5.52c-3.88,1.45-5.49.46-7.11-3.24-.79-1.8-1.1-3.7-3.58-3.59-3.92.17-4.72,4.61-9.56,3-3-1-4.66-2.8-8.07-2.07-3.14.67-4.68,3.25-7.2,4.91-5,3.28-9.68-.84-13.26-4.34-1.38-1.35-3.5.77-2.12,2.12Z" transform="translate(-347 -149.39)"/><path class="cls-4" d="M807.24,656.87c4.84,2,6.45,5.11,8,9.87.39,1.18.7,2.4,1.95,3,2.91,1.35,5.58-2.71,7.25-4.34,5.81-5.7,11.95-8.93,20.14-7.8a25.76,25.76,0,0,0,15.46-2.52c1.73-.85.21-3.44-1.51-2.59a22.13,22.13,0,0,1-10.21,2.5c-2.53,0-5-.84-7.51-.9-5.34-.12-10.09,2.46-14.27,5.56a55.92,55.92,0,0,0-5.91,5.36c-.85.83-1.31,1.8-2.2,1.4-.7-.32-.93-3-1.21-3.7-1.65-4.33-5.05-7-9.21-8.7-1.78-.75-2.55,2.15-.8,2.89Z" transform="translate(-347 -149.39)"/><path class="cls-4" d="M804.57,666.21c9.61,3.21,17.76,3.55,26.69-1.17,5.92-3.13,11.08-.41,17.13.54a29.62,29.62,0,0,0,15-1.7c1.8-.65,1-3.55-.8-2.89a28.41,28.41,0,0,1-17.48.82c-3.85-1-7.53-2-11.49-1s-6.73,3.76-10.67,4.59c-5.91,1.24-12-.22-17.57-2.09-1.84-.61-2.62,2.28-.8,2.89Z" transform="translate(-347 -149.39)"/><path class="cls-4" d="M873.57,651.65c-5.12,1.39-12.17,3.39-17.21.61-4.39-2.42-3.08-8-6.53-11-3-2.6-6.58-1.23-9.83.05-7.46,2.94-13.81,2-20-3.27-1.45-1.26-3.59.86-2.12,2.12,4.62,4,10.1,6.76,16.35,6a32.5,32.5,0,0,0,7.59-2.36c1.41-.54,3.29-1.47,4.84-.91,2.42.87,2.54,3.69,3.21,5.64,3.65,10.54,15.92,8.37,24.46,6.06a1.5,1.5,0,0,0-.8-2.89Z" transform="translate(-347 -149.39)"/><path class="cls-4" d="M888.37,641c-5.52-1.87-9.57-1.2-15.13-.24-4.44.76-7.46-1.48-11.59-1.65-9.1-.37-19,6.07-26.44,10.37a1.5,1.5,0,0,0,1.51,2.59c6.79-3.92,17-11,25.44-9.93,3,.38,5.57,1.91,8.74,1.88,2.4,0,4.64-.86,7-1.25a19.65,19.65,0,0,1,9.69,1.13c1.83.62,2.62-2.28.8-2.89Z" transform="translate(-347 -149.39)"/><path class="cls-4" d="M839.71,612.54a10.12,10.12,0,0,1,9.48,2.86,18.24,18.24,0,0,0,3.2,3,6.39,6.39,0,0,0,6.66-.1c3-1.77,4.66-5.35,8.34-5.88,4.06-.59,7.16,3.34,11.44,2.84,1.53-.18,2.71-1.13,4.11-1.43,3.33-.7,4.48.84,5.92,3.49,1.11,2,2.43,4.06,4.91,4.42,5.79.85,11.27-6.87,14.25-10.56,1.2-1.49-.91-3.63-2.12-2.12-2.57,3.19-5.55,7.28-9.36,9.11s-4.66-2.06-6.33-4.72c-1.24-2-3-3.75-5.56-3.54a8,8,0,0,0-2.81,1.08c-3.49,1.61-5.48,1.25-8.76-.32-6.44-3.1-9.61.34-14.43,4.16-4.19,3.32-6.2-1-9.33-3.29s-6.77-2.54-10.43-1.87c-1.9.35-1.09,3.24.8,2.89Z" transform="translate(-347 -149.39)"/><path class="cls-6" d="M732.72,245a140,140,0,0,1-10.77-12.67,97.37,97.37,0,0,1-7.76-11.81c-2.11-3.85-2.8-8.84-7-10.92l3,5.18v0c0-3-2.76-6.37-6-6a.73.73,0,0,1-.33,0c-3.23-.37-6,3.05-6,6v0l3-5.18c-4.2,2.06-4.92,7.08-7,10.92a98.15,98.15,0,0,1-8.15,12.33c-3.36,4.4-7.71,8.23-10.84,12.75-1.74,2.51-1.18,4.66-.88,7.41l1.33,12.23,8.5,78.35,2.39,22c.33,3,2.49,6.3,6,6,3.91-.34,7.94-1,11.86-1s8,.68,11.86,1c3.47.3,5.68-3,6-6l11-101.78,1.59-14.61c.83-7.67-11.17-7.61-12,0L711.42,351l-1.59,14.61,6-6c-3.91-.34-7.94-1-11.86-1s-8,.68-11.86,1l6,6-11-101.78-1.59-14.61-1.76,4.24a155.22,155.22,0,0,0,10.53-12.33,125.32,125.32,0,0,0,7.85-11.1,68.62,68.62,0,0,0,3.51-6.37c.5-1,1-2.09,1.39-3.15l.47-1.13q1.09-2.56-.63.57a5.94,5.94,0,0,0,3-5.18v0l-6,6a.73.73,0,0,0,.33,0l-6-6v0a5.94,5.94,0,0,0,3,5.18q-1.56-2.87-.84-1.13.31.86.68,1.69c.36.86.72,1.73,1.12,2.58a64.3,64.3,0,0,0,3.43,6.36,123.7,123.7,0,0,0,8.2,11.68,154.85,154.85,0,0,0,10.53,12.33C729.59,259.08,738.07,250.59,732.72,245Z" transform="translate(-347 -149.39)"/><path class="cls-2" d="M728.47,249.26s-18.33-19-23-33.67a3.32,3.32,0,0,0-1.33-.79v0l-.17,0-.17,0v0a3.32,3.32,0,0,0-1.33.79c-4.67,14.67-23,33.67-23,33.67l12.64,116.4,11.86-1,11.86,1Z" transform="translate(-347 -149.39)"/><path class="cls-6" d="M484.49,354.14a135.57,135.57,0,0,1-16.29-1.87A99.62,99.62,0,0,1,454.49,349c-4.37-1.42-8.21-4.56-12.92-3.11l5.84,1.54,0,0c-2.09-2.22-6.43-2.42-8.49,0l1-.71c-3.13,2.33-4.08,6.37-1.21,9.42l0,0-1.54-5.84c-1.6,4.25,1.31,8.57,2.39,12.69a90.2,90.2,0,0,1,2.41,13.89c.56,5.57.24,11.25.82,16.79.35,3.34,2.21,4.63,4.5,6.59l8.94,7.67,60.36,51.76,16.83,14.43c2.36,2,6.19,2.56,8.49,0,2.62-2.92,5.09-6.18,8-8.86s6.27-4.94,9.35-7.38c1.87-1.47,2.39-5.35.94-7.27l-61.61-81.77-8.84-11.74c-4.59-6.09-15-.12-10.36,6.06l61.61,81.77,8.84,11.74.94-7.27c-3.08,2.43-6.49,4.69-9.35,7.38s-5.33,5.94-8,8.86h8.49L464.16,399,453,389.43l1.76,4.24A150,150,0,0,0,454,377.5a129.66,129.66,0,0,0-2-13.88c-.44-2.11-.95-4.2-1.58-6.26q-.54-1.75-1.21-3.45l-.45-1.08q-1.23-3.18,0,.66c.75-2-.17-4.37-1.54-5.84l0,0L445.92,357a8.63,8.63,0,0,0,1.46-1.17h-8.49l0,0a6,6,0,0,0,5.84,1.54q-3.38-1-1.62-.16.77.39,1.57.74c1,.46,2.05.88,3.09,1.29a67,67,0,0,0,6.55,2.17A116.49,116.49,0,0,0,468,364.33a165.56,165.56,0,0,0,16.46,1.8C492.21,366.54,492.18,354.54,484.49,354.14Z" transform="translate(-347 -149.39)"/><path class="cls-2" d="M484.49,360.14s-26.37-1.31-39.81-8.8a3.32,3.32,0,0,0-1.51.34l0,0-.11.13-.13.1,0,0a3.32,3.32,0,0,0-.43,1.49c6.64,13.89,6.27,40.29,6.27,40.29l88.88,76.22,8-8.86,9.35-7.38Z" transform="translate(-347 -149.39)"/><path class="cls-6" d="M467.72,501.26c-.29-3.58-.63-7.15-1.06-10.71s-.32-8.71-2.45-11.68L459.08,484l52.5,33c4.1,2.58,7.87-3.91,3.79-6.48l-52.5-33c-3-1.91-7.36,2-5.13,5.13,1.32,1.85,1.38,7.32,1.66,9.94q.48,4.33.82,8.67c.38,4.78,7.88,4.82,7.5,0Z" transform="translate(-347 -149.39)"/><path class="cls-6" d="M883.87,525l59.33-35.69-5.13-5.13c-1.88,2.63-1.88,7.09-2.27,10.16-.48,3.77-1.08,7.65-1.18,11.46-.15,5.49.52,14.23,4,18.62,3,3.77,8.29-1.57,5.3-5.3.68.84-.1-.92-.16-1.14-.25-.91-.41-1.87-.58-2.8-.31-1.66-.54-3.33-.75-5a27.41,27.41,0,0,1-.3-4.85c.15-3.15.58-6.33,1-9.46.26-2.17.4-6.47,1.43-7.9,2.25-3.14-2.08-7-5.13-5.13l-59.33,35.69c-4.13,2.48-.37,9,3.79,6.48Z" transform="translate(-347 -149.39)"/><path class="cls-6" d="M517.87,500.68l-57.5-37.18,1.72,4.23c4.34-16.56.54-35.77-5-51.47l-6.27,3.65,65.38,53.4,9.31,7.6c3.71,3,9-2.25,5.3-5.3l-65.38-53.4-9.31-7.6c-2.61-2.13-7.64-.24-6.27,3.65,5.09,14.43,9,32.21,5,47.48a3.86,3.86,0,0,0,1.72,4.23l57.5,37.18c4.07,2.63,7.83-3.86,3.79-6.48Z" transform="translate(-347 -149.39)"/><path class="cls-6" d="M558.66,431.54l-42.81-63.13-6.13-9-4.23,5.51a80.3,80.3,0,0,0,62.89-10.3l-5.13-1.35,24,52.93v-3.79l-15,29.17,3.24-1.86H555.42c-4.83,0-4.83,7.5,0,7.5h20.05a3.73,3.73,0,0,0,3.24-1.86l8.62-16.77,5.22-10.16c1.1-2.13,2-3.62,1.13-6.08-4.62-12.74-11.36-25-17-37.38l-7-15.49a3.77,3.77,0,0,0-5.13-1.35,72.81,72.81,0,0,1-57.11,9.55c-3-.77-6.14,2.7-4.23,5.51l42.81,63.13,6.13,9C554.88,439.3,561.38,435.55,558.66,431.54Z" transform="translate(-347 -149.39)"/><path class="cls-6" d="M601.86,394.52l-18.94-46.76-2.62,4.61c17.58-3.56,33.7-16.06,40-33H613l17.67,77.09,2.62-4.61L602,401.81l4.23,1.72-4.73-9.91c-2.08-4.35-8.55-.55-6.48,3.79l4.73,9.91A3.77,3.77,0,0,0,604,409l31.33-9.91a3.84,3.84,0,0,0,2.62-4.61l-17.67-77.09c-.89-3.89-6-3.22-7.23,0-5.35,14.45-19.84,24.7-34.71,27.71-1.83.37-3.34,2.82-2.62,4.61l18.94,46.76C596.42,400.93,603.68,399,601.86,394.52Z" transform="translate(-347 -149.39)"/><path class="cls-6" d="M684.83,371l-12.47-92.76-1.77-13.18c-.42-3.14-5.56-3.67-6.85-.9a146,146,0,0,1-11.1,19.42c-6.5,9.71-15.16,21.3-27,24.5a3.84,3.84,0,0,0-2.62,4.61l15,76.36c.36,1.83,2.83,3.34,4.61,2.62l39.57-16.05c4.41-1.79,2.48-9-2-7.23l-39.57,16.05,4.61,2.62-15-76.36-2.62,4.61c12.81-3.47,22.21-14.74,29.56-25.15a145,145,0,0,0,13-22.22l-6.85-.9,12.47,92.76L677.6,373C678.24,377.8,685.46,375.77,684.83,371Z" transform="translate(-347 -149.39)"/><path class="cls-6" d="M922.47,364.81a165.56,165.56,0,0,0,16.46-1.8,116.49,116.49,0,0,0,13.68-2.85c2-.56,4-1.2,6-1.95,1.23-.47,2.46-1,3.65-1.51l1.06-.48q2.55-1.09-1.11-.09a6,6,0,0,0,5.84-1.54l0,0h-8.49a8.63,8.63,0,0,0,1.46,1.17l-1.21-9.42,0,0c-1.37,1.46-2.3,3.84-1.54,5.84q1.09-3.47.26-1.38l-.75,1.8q-.55,1.42-1,2.86a65.9,65.9,0,0,0-1.77,6.85,130.23,130.23,0,0,0-2,13.88,149.39,149.39,0,0,0-.76,16.17L954,388.1l-84.58,72.54-12,10.25,9.42,1.21c-1.9-4.1-3.67-8.29-5.72-12.32-1.71-3.36-4.91-5.45-7.74-7.88l.94,7.27L918.47,374l9.19-12.19c4.65-6.17-5.77-12.16-10.36-6.06l-64.14,85.14L844,453.11c-1.48,2-.9,5.69.94,7.27l4.45,3.82c1.17,1,1.75,2.1.81.33.33.62.59,1.28.89,1.91l5.44,11.71c1.75,3.76,6.76,3.49,9.42,1.21l46.37-39.77,32.59-27.95c5.63-4.83,12.38-9.39,17.37-14.9,3.39-3.73,2-11.74,2.37-16.38a109.45,109.45,0,0,1,2.07-15.53c1-4.84,5-11,3.14-15.87l-1.54,5.84,0,0c2.87-3.06,1.92-7.1-1.21-9.42l1,.71c-2-2.42-6.41-2.22-8.49,0l0,0,5.84-1.54c-4.56-1.4-8.13,1.51-12.32,2.92a97.32,97.32,0,0,1-14.31,3.46,136.18,136.18,0,0,1-16.29,1.87C914.79,353.2,914.74,365.2,922.47,364.81Z" transform="translate(-347 -149.39)"/><path class="cls-2" d="M922.47,358.81s26.37-1.31,39.81-8.8a3.32,3.32,0,0,1,1.51.34l0,0,.11.13.13.1,0,0a3.32,3.32,0,0,1,.43,1.49c-6.64,13.89-6.27,40.29-6.27,40.29l-96.53,82.78-6.36-11.37-6.16-7.62Z" transform="translate(-347 -149.39)"/><path class="cls-6" d="M729.72,370.76l12.27-95,1.73-13.37-7.37,1c5.94,18,17,36.69,33.06,47.24l-1.72-4.23-3.4,19.81L761.75,341c-.13.77-1.9,7.29-1.34,7.8-.54-.49,1.9-2.12.2-.66a35.86,35.86,0,0,0-2.88,3.18L748.5,361.5l-14.18,15.61h5.3l-11-9c-3.71-3-9,2.24-5.3,5.3l11,9c1.51,1.23,3.83,1.62,5.3,0l14.51-16,9.36-10.3c1.39-1.53,3.39-3.18,4.13-5.16.8-2.15.85-4.93,1.23-7.18l2.5-14.57,3.57-20.8a3.94,3.94,0,0,0-1.72-4.23c-14.36-9.42-24.31-26.67-29.61-42.76-1.4-4.25-6.84-3.08-7.37,1l-12.27,95-1.73,13.37C721.61,375.53,729.11,375.49,729.72,370.76Z" transform="translate(-347 -149.39)"/><path class="cls-6" d="M781.59,332.26l3-19.52L779.08,315c4.67,3.36,9.55,6.44,14.5,9.36v-6.48L776.08,328c-4.17,2.42-.4,8.91,3.79,6.48l17.5-10.17a3.79,3.79,0,0,0,0-6.48c-5-2.92-9.83-6-14.5-9.36-1.82-1.31-5.16,0-5.51,2.24l-3,19.52C773.63,335,780.86,337,781.59,332.26Z" transform="translate(-347 -149.39)"/><path class="cls-6" d="M841.21,451.88l52-72,7.51-10.39c1.68-2.32-.57-5.73-3.24-5.64A111.21,111.21,0,0,1,871,361.55c-6.44-1.36-13-3.32-18.5-7.08-2.36-1.62-3.68-3.64-6.63-3.89-2.1-.18-4.28,0-6.39,0a3.81,3.81,0,0,0-3.75,3.75l-1.31,83.58L834.22,450c-.08,4.83,7.42,4.83,7.5,0L843,366.41l.19-12.07-3.75,3.75h7l-2.65-1.1c13.28,12.78,36,15,53.65,14.39l-3.24-5.64-52,72-7.51,10.39C831.91,452,838.41,455.76,841.21,451.88Z" transform="translate(-347 -149.39)"/><path class="cls-6" d="M897.79,607.52q.06-3,.06-6c0-130.84-89.94-236.9-200.88-236.9S496.1,470.69,496.1,601.52q0,3,.06,6Z" transform="translate(-347 -149.39)"/><path class="cls-2" d="M629,631.26c2.62,3.07,59.59,67.78,130.75,52.22,23.74-5.19,41.15-17.59,52-27.37a89.73,89.73,0,0,0,20.32-27.77,76.29,76.29,0,0,0,4.84-13c7.9-30.51-11.26-61.83-14.27-66.62-4.24-6.74-13.33-17-24-26.67-17.36-15.77-22.75-22.47-23.67-24.83l-3.35-8.72h0A46.16,46.16,0,0,1,770,477.26c-.48-24,18.29-41.06,23.5-45.5,0,0,6.5-12.5,3.5,64.5,0,0,4.5,23,24.5,18.5s17.37-15,17.37-15l13.13-181s1.5-7.5-12-7-44.5,0-44.5,0a29.19,29.19,0,0,0-13,7.52c-6,6-102.5,111.5-102.5,111.5l-5.5,8c2.31,15.18,9.69,61.13,22.22,99.11,6.76,20.5,11.08,26.73,16.78,31.39,10,8.17,20.73,8.71,27,20.5,1.32,2.47,4.27,8.2,2.29,14-1.84,5.38-6.95,7.88-11.31,10-15.67,7.66-32.76,2.95-37.92,1.52l-.08,0-.24-.15a58.32,58.32,0,0,1-14.2-9.29c-16.68-14.84-16.67-32.7-30.56-37.56-2.63-.92-6.87-1.77-13-.33l-71,46.33a24.6,24.6,0,0,0-4.61,14.18c.06,9.08,5.62,18.35,13.61,21.32,5.33,2,10.35.63,15.5-1A215.15,215.15,0,0,0,629,631.26Z" transform="translate(-347 -149.39)"/><path class="cls-2" d="M912,623.43" transform="translate(-347 -149.39)"/><path class="cls-2" d="M838,665.43" transform="translate(-347 -149.39)"/><path class="cls-2" d="M941.31,594.76" transform="translate(-347 -149.39)"/><path class="cls-7" d="M593.47,369.76h62s7-1,7,6.5l32,161s5,12,12.5,15,14,6,3,11.5H631s-10.5-2.5-3-7a67.81,67.81,0,0,0,12-9s8.5-21-2-29.5l-41-.5s-23,13.5-8,35c0,0,4.84,7.5-5.08,11H531s-8-3,3-9,14.5-4,26-20.5l45-146s2-13-10.5-11.5C594.47,376.76,587.47,373.26,593.47,369.76Z" transform="translate(-347 -149.39)"/><path class="cls-8" d="M593.47,369.76h62s7-1,7,6.5l32,161s5,12,12.5,15,14,6,3,11.5H631s-5.56-1.32-5.7-3.78c-.08-1.36,1.57-2.46,2.7-3.22,2.82-1.92,6.76-4.76,12-9a30,30,0,0,0,2.94-11.56A30.82,30.82,0,0,0,638,518.26l-41-.5s-23,13.5-8,35c0,0,4.84,7.5-5.08,11H531s-8-3,3-9,14.5-4,26-20.5l45-146c.25-6.35-1.29-8.84-2.94-9.86-2.53-1.57-5.55.19-7.56-1.64C592.79,375.23,593,372.23,593.47,369.76Z" transform="translate(-347 -149.39)"/><polygon class="cls-9" points="289.48 340.37 280.48 265.37 253.98 340.37 289.48 340.37"/><path class="cls-6" d="M880.45,517l65.36-42.63a3.77,3.77,0,0,0,1.86-3.24c-1-16.7-.21-35.86,7-51.18,1.86-4-2.54-7.22-5.89-4.54l-77.65,62-11.21,9a3.75,3.75,0,0,0-.59,4.54l16,24.69c2.62,4,9.11.28,6.48-3.79l-16-24.69-.59,4.54,77.65-62,11.21-9-5.89-4.54c-7.8,16.59-9.06,36.85-8,55l1.86-3.24-65.36,42.63C872.64,513.15,876.39,519.64,880.45,517Z" transform="translate(-347 -149.39)"/><text class="cls-10" transform="translate(314.39 574.72)">SMK</text><text class="cls-11" transform="translate(240.48 600.76)">ADI SANGGORO</text><path class="cls-3" d="M476.5,733.92c4-2.58,14.59-7.36,29-6.75a105.35,105.35,0,0,1,17.5,3.42c8,2.22,16.6,5.56,18.5,6.33,4.82,2,8.23,4.09,17.5,10.75,11.37,8.17,17,12.3,20.5,15.25,25.13,21.31,34.28,51,40,49,1.33-.47.64-2,3.25-5.24,3.29-4.08,9.66-8.23,15-6.75,4.3,1.19,4.52,5.09,8,5s4.36-4,8.75-4.25c3-.2,4.29,1.42,5.5.5,1.64-1.25-.66-4.39.5-8.5,1.38-4.88,6.21-6.12,5.75-8.25s-5.76-2.69-9-3c-2.7-.26-4-.12-15.5.5a29.08,29.08,0,0,1-9-.5,25.43,25.43,0,0,1-5-1.75c-25.57-11.86-33.2-17-44.58-25.42-5.34-3.94-13-11.23-24.67-19.58-1-.75-1.92-1.35-2.5-1.75" transform="translate(-347 -149.39)"/><path class="cls-3" d="M548.14,740.27a43,43,0,0,0-9.46.66c-5.13,1.33-8.14,4.1-9.94,5.13-8.75,5-18.05,1.7-22.06.56-1.68-.48-6.55-2.76-13.48-7.15-1.09-.69-1.63-1.06-2.71-1.73-5.21-3.21-11.17-2.43-13.19-2.06a20.45,20.45,0,0,0-2.5.63,6.82,6.82,0,0,1,2.5-2.87" transform="translate(-347 -149.39)"/><path class="cls-2" d="M557,733.26c3.36-4.91,5.43-10.45,3.82-16.41-.87-3.21-2.7-6.13-3.93-9.2a50.78,50.78,0,0,1-3.43-15.73c-.1-1.61-2.55-2.13-2.95-.4-2.18,9.58-9.16,16.76-7.8,27,.94,7.15,4.87,13.69,10.1,18.59a1.52,1.52,0,0,0,2.12,0c1-1.1,1.36-2.58,2.07-3.89.92-1.7-1.67-3.22-2.59-1.51-.5.93-.89,2.52-1.6,3.28H555c-5.37-5-9.34-11.92-9.47-19.41-.08-4.64,1.64-8,3.77-11.83a44,44,0,0,0,4.17-11.47l-2.95-.4a59.17,59.17,0,0,0,5.71,21.4c3.16,6.84,2.52,12.18-1.75,18.42C553.36,733.35,556,734.85,557,733.26Z" transform="translate(-347 -149.39)"/><path class="cls-2" d="M553.53,719.26a18,18,0,0,1,.81,3.69,33,33,0,0,1,.23,3.54,32.2,32.2,0,0,1-.14,3.55,17.74,17.74,0,0,1-.72,3.71,10.46,10.46,0,0,1-1.63-3.51,14.87,14.87,0,0,1-.51-3.72,15.09,15.09,0,0,1,.42-3.73A10.55,10.55,0,0,1,553.53,719.26Z" transform="translate(-347 -149.39)"/><path class="cls-2" d="M538.17,726.76c.45-5.46,2.48-10,3.88-15.19a11.37,11.37,0,0,0,.06-5.39c-1.78-8.64-8.42-16.45-13.72-23.15-.85-1.08-2.54-.12-2.56,1.06-.18,9.09-7.38,15.48-5.06,24.79a31,31,0,0,0,15.14,19.17c1.7.92,3.21-1.67,1.51-2.59-7.37-4-14.41-12.57-14.28-21.4.06-4,2.42-6.65,3.86-10.16a27.23,27.23,0,0,0,1.83-9.81l-2.56,1.06c4.87,6.17,12.08,14.3,13.06,22.51.25,2.11-.37,3.48-1.12,5.42a49.15,49.15,0,0,0-3.05,13.68C535,728.68,538,728.67,538.17,726.76Z" transform="translate(-347 -149.39)"/><path class="cls-5" d="M453.17,722.09" transform="translate(-347 -149.39)"/><path class="cls-2" d="M517.83,715.26c-8,.45-16,.69-24,.67-3.45,0-7.18.26-10.51-.84-3.73-1.24-7.13-3.8-10.18-6.19A172.32,172.32,0,0,1,455.06,692L454,694.59c22.74,1.44,46.95,5.18,62.77,23.23,1.28,1.45,3.39-.67,2.12-2.12-16.35-18.64-41.39-22.61-64.89-24.11a1.52,1.52,0,0,0-1.06,2.56A168.89,168.89,0,0,0,472,711.78c3.1,2.38,6.41,4.77,10.14,6.07,3,1,6.06,1,9.17,1.06,8.85.11,17.7-.15,26.53-.65C519.75,718.15,519.77,715.15,517.83,715.26Z" transform="translate(-347 -149.39)"/><path class="cls-5" d="M429.5,704.76" transform="translate(-347 -149.39)"/><path class="cls-2" d="M513.07,705.81c-4.69-1.74-2.69-15.46-2.06-18.38,1.29-5.91,3.82-11.38,5.66-17.11l-2.74.36a45.56,45.56,0,0,1,5.82,14.54,21.69,21.69,0,0,1-.48,10.68c-.73,2.47-3.15,9.8-6.59,9.85-1.93,0-1.93,3,0,3,6.79-.11,10.05-12,10.5-17.17.67-7.64-2.71-16-6.65-22.42a1.52,1.52,0,0,0-2.74.36c-2.65,8.27-6.53,16.15-6.64,25-.05,4.35.27,12.36,5.13,14.16C514.08,709.38,514.86,706.48,513.07,705.81Z" transform="translate(-347 -149.39)"/><path class="cls-2" d="M499.95,689c-2.9-9.35-8.47-18.54-16.25-24.67a21.71,21.71,0,0,0-13.74-5.1c-3,.06-5.65.48-8.68-.47a23.55,23.55,0,0,1-9.71-6.43,1.52,1.52,0,0,0-2.56,1.06c.24,14.09,10.15,25,23,29.93a34.1,34.1,0,0,0,8.24,2c5.38.63,8.8,2,12.83,5.65,2.84,2.56,6.14,3.79,6.89-1.2.29-1.89-2.6-2.7-2.89-.8-.35,2.28-.89.75-1.88-.13s-1.67-1.56-2.58-2.27a19.67,19.67,0,0,0-5.45-3.15c-4.79-1.73-9.94-1.24-14.77-3.19C461,675.71,452.21,666,452,653.42l-2.56,1.06a26.17,26.17,0,0,0,11.85,7.42c5.5,1.47,10.85-.5,16.23,2.05,9.65,4.58,16.5,16.09,19.53,25.87C497.62,691.66,500.52,690.88,499.95,689Z" transform="translate(-347 -149.39)"/><path class="cls-2" d="M506,687.42c-2-.19-3.66-5.79-4.18-7.26a37.93,37.93,0,0,1-2.13-9.6,36.44,36.44,0,0,1,3.1-17.38L500.05,652a13.64,13.64,0,0,0,1.07,8.41c1.48,2.9,4.36,4.56,5.91,7.36,1.79,3.22,1.95,7.33,1.59,10.91-.19,1.9-.75,8.07-3,8.78-1.84.57-1.05,3.47.8,2.89,4.86-1.51,5.39-10.56,5.36-14.58a19.51,19.51,0,0,0-2.38-10c-2.84-4.67-7.39-6.4-6.43-13,.22-1.5-2-2.87-2.74-1.16a39.21,39.21,0,0,0-2.89,23.43c.84,4.22,3.07,14.8,8.68,15.32C507.92,690.6,507.91,687.6,506,687.42Z" transform="translate(-347 -149.39)"/><path class="cls-2" d="M490.57,666.14c-2.48-.55-3.4-6.4-3.78-8.44a26.39,26.39,0,0,1,.4-11.52,33.31,33.31,0,0,1,7.53-13.37l-2.51-1.46a25.22,25.22,0,0,0,0,15.51c1.08,3.41,1.9,6.3,1.53,10-.23,2.25-1.09,8.65-4,9.29-1.88.42-1.09,3.32.8,2.89,4.69-1.05,6-9,6.24-12.75a25.8,25.8,0,0,0-1.71-10.22,22.34,22.34,0,0,1,0-13.91,1.51,1.51,0,0,0-2.51-1.46c-4.86,5.51-8.53,12.2-9.18,19.63-.41,4.66.19,17.35,6.34,18.71C491.65,669.45,492.45,666.56,490.57,666.14Z" transform="translate(-347 -149.39)"/><path class="cls-5" d="M416.33,627.76" transform="translate(-347 -149.39)"/><path class="cls-2" d="M481.62,656.13c-2.63,1.78-9.05-3.1-11.1-4.45A74,74,0,0,1,459,642.39a70.86,70.86,0,0,1-15.85-25.24l-2.51,1.46a21.49,21.49,0,0,0,10.52,7.32c4,1.12,8.22.63,12.2,2,5.47,1.93,10.49,5.62,13.2,10.83a36.07,36.07,0,0,1,2.63,7.61c.54,2.09,3.07,8.36,1.85,10.26-1,1.63,1.55,3.13,2.59,1.51.9-1.4.61-2.9.37-4.46a83.45,83.45,0,0,0-2.67-10.9,25.23,25.23,0,0,0-8.42-13,29,29,0,0,0-11.88-5.69c-3-.63-6.12-.31-9.07-1.13-3.76-1-6.75-3.6-9.19-6.54a1.51,1.51,0,0,0-2.51,1.46c4.16,10.88,10.25,20.91,18.94,28.76a70.57,70.57,0,0,0,14.44,10.35c2.58,1.34,6.64,3.56,9.45,1.66C484.72,657.64,483.22,655,481.62,656.13Z" transform="translate(-347 -149.39)"/><path class="cls-2" d="M480,635.67c-.17-5.12-.61-9.72.86-14.7a47.39,47.39,0,0,1,5.93-12.54l-2.74-1.16a34.19,34.19,0,0,0,.13,13c.55,3.09,1.23,6.43.92,9.59-.22,2.23-4.9,10.75-5.11,5.8-.08-1.92-3.08-1.93-3,0,.09,2.11-.09,5.06,2.65,5.32s5.42-3.16,6.6-5.16c4.92-8.31-1.05-18.75.7-27.76a1.51,1.51,0,0,0-2.74-1.16A50.11,50.11,0,0,0,478,620.17c-1.54,5.23-1.15,10.11-1,15.5C477.06,637.6,480.06,637.61,480,635.67Z" transform="translate(-347 -149.39)"/><path class="cls-2" d="M471.15,616.48a52,52,0,0,1-35.52-48.18l-2.95.4c1.45,3.88,3.8,7,7.73,8.66a33.9,33.9,0,0,1,12.6,8.33,61.71,61.71,0,0,1,16.3,32.64c.32,1.9,3.21,1.09,2.89-.8a63.79,63.79,0,0,0-12.89-29.1,50,50,0,0,0-10.88-10.72c-4.85-3.3-10.51-3.54-12.85-9.81-.56-1.5-3-1.4-2.95.4a55.11,55.11,0,0,0,37.73,51.07C472.19,620,473,617.08,471.15,616.48Z" transform="translate(-347 -149.39)"/><path class="cls-2" d="M472.6,611.63c10.18-3,9.85-19.72,7.45-27.48a1.51,1.51,0,0,0-2.89,0,30.36,30.36,0,0,1-5.5,11,28.4,28.4,0,0,0-4.32,6.88c-1.93,4.7-1.33,10,4.86,9.6,1.92-.12,1.93-3.12,0-3l-2.75-3.74.51-1.43a13.54,13.54,0,0,1,2.42-4.41c1-1.45,2.27-2.76,3.29-4.23a32.52,32.52,0,0,0,4.38-9.93h-2.89a26.8,26.8,0,0,1,.54,15.15c-.87,3.22-2.38,7.6-5.9,8.64C470,609.29,470.74,612.18,472.6,611.63Z" transform="translate(-347 -149.39)"/><path class="cls-2" d="M469.26,588.25c-4.13-1.8-2-13.59-1.08-16.67a29.31,29.31,0,0,1,7.14-11.73l-2.56-1.06a88,88,0,0,0,1.39,14,16.27,16.27,0,0,1-.11,6.9c-.53,2.08-2.66,8.31-5.53,8.39-1.93.05-1.93,3.05,0,3,5.14-.15,8-8,8.73-12.07,1.12-6.54-1.45-13.57-1.48-20.18a1.52,1.52,0,0,0-2.56-1.06,31.21,31.21,0,0,0-8.85,17.69c-.49,3.87-1.24,13.39,3.41,15.42C469.49,591.61,471,589,469.26,588.25Z" transform="translate(-347 -149.39)"/><path class="cls-2" d="M928.23,554.09c-3.84-1.71-4.05-7.93-3.32-11.48.85-4.13,3.32-8.1,5.77-11.48A47.84,47.84,0,0,0,939,513l-2.95-.4c.8,7.22,5.33,42.69-8.62,41.25-1.92-.2-1.9,2.8,0,3,17.53,1.81,12.61-35.35,11.63-44.25-.17-1.55-2.54-2.19-2.95-.4a41.66,41.66,0,0,1-5.7,14.11c-2.67,4-5.5,7.61-7.32,12.15-2.12,5.28-2.8,15.33,3.59,18.18C928.46,557.46,930,554.88,928.23,554.09Z" transform="translate(-347 -149.39)"/><path class="cls-2" d="M461.22,578.85c-7.49-2.18-10.55-10.58-10.59-17.63a60.2,60.2,0,0,0-4.43-23.45l-2.51,1.46a62.15,62.15,0,0,1,14.58,19.45c1,2.07,8.9,21.34,3,20.17-1.89-.37-2.69,2.52-.8,2.89,9.45,1.86,5.6-10.9,4-15.81a67.37,67.37,0,0,0-18.57-28.82c-1-.91-3.13,0-2.51,1.46a53.5,53.5,0,0,1,4.15,16.12c.35,4.07-.22,8.26.63,12.28,1.36,6.46,5.85,12.89,12.34,14.78A1.5,1.5,0,0,0,461.22,578.85Z" transform="translate(-347 -149.39)"/><path class="cls-2" d="M469.26,556.84c6.4-2.86,5.68-12.9,3.59-18.18-1.74-4.39-4.43-7.9-7.05-11.75a41.54,41.54,0,0,1-6-14.52c-.4-1.77-2.77-1.17-2.95.4-1,8.9-5.92,46.06,11.63,44.25,1.9-.2,1.92-3.2,0-3-14,1.44-9.43-34-8.62-41.25l-2.95.4a47.84,47.84,0,0,0,8.37,18.09c2.44,3.38,4.91,7.35,5.77,11.48.73,3.55.52,9.76-3.32,11.48C466,555,467.51,557.62,469.26,556.84Z" transform="translate(-347 -149.39)"/><g class="cls-12"><path class="cls-13" d="M1054.48,203.76c-17.11,4.94-38.67,10.73-63.64,14.5a377.43,377.43,0,0,1-92.34,2.58,443.24,443.24,0,0,1-54.31-8.52,378.19,378.19,0,0,1-55.69-17.19,428.7,428.7,0,0,1-81-42.66,9.82,9.82,0,0,0-2.78-2.27,7.86,7.86,0,0,0-3.79-.78V914.3a4.42,4.42,0,0,0,1,0,9.07,9.07,0,0,0,1.39-.31,10.34,10.34,0,0,0,3.06-1.52c32-31.47,79.46-61.74,147-79,45.11-11.55,80.27-36.43,95.06-50.62C1000.4,732.95,1060.11,670.42,1054.48,203.76Z" transform="translate(-347 -149.39)"/></g><g class="cls-14"><path class="cls-15" d="M347.37,203.76c17.11,4.94,38.67,10.73,63.64,14.5a377.43,377.43,0,0,0,92.34,2.58,443.24,443.24,0,0,0,54.31-8.52,378.19,378.19,0,0,0,55.69-17.19,428.7,428.7,0,0,0,81-42.66,9.82,9.82,0,0,1,2.78-2.27,7.86,7.86,0,0,1,3.79-.78v763.8c-.83-.85-4.05-.82-4.91-1.67-32-31.47-80-60.82-147.56-78.12-45.11-11.55-80.27-36.43-95.06-50.62C401.44,732.95,341.74,670.42,347.37,203.76Z" transform="translate(-347 -149.39)"/></g></svg>